<svg width="21" height="10" viewBox="0 0 21 10" fill="none" xmlns="http://www.w3.org/2000/svg">
<path d="M1.74048 0.571999H2.93048V3.162H4.49848V4.226H2.93048V9H1.74048V4.226H0.690484V3.162H1.74048V0.571999ZM4.95939 6.06C4.95939 5.64 5.03872 5.24333 5.19739 4.87C5.36539 4.49667 5.58939 4.17467 5.86939 3.904C6.14939 3.624 6.47606 3.40467 6.84939 3.246C7.23206 3.078 7.64272 2.994 8.08139 2.994C8.52006 2.994 8.92606 3.078 9.29939 3.246C9.68206 3.40467 10.0087 3.624 10.2794 3.904C10.5594 4.17467 10.7741 4.49667 10.9234 4.87C11.0821 5.24333 11.1614 5.64 11.1614 6.06C11.1614 6.48 11.0821 6.87667 10.9234 7.25C10.7741 7.62333 10.5594 7.95 10.2794 8.23C10.0087 8.51 9.68206 8.734 9.29939 8.902C8.92606 9.06067 8.51539 9.14 8.06739 9.14C7.63806 9.14 7.23206 9.06533 6.84939 8.916C6.47606 8.76667 6.14939 8.55667 5.86939 8.286C5.58939 8.01533 5.36539 7.69333 5.19739 7.32C5.03872 6.93733 4.95939 6.51733 4.95939 6.06ZM6.14939 6.074C6.14939 6.33533 6.19606 6.58267 6.28939 6.816C6.39206 7.04 6.52739 7.24067 6.69539 7.418C6.87272 7.586 7.07339 7.72133 7.29739 7.824C7.53072 7.91733 7.77806 7.964 8.03939 7.964C8.30072 7.964 8.54806 7.91733 8.78139 7.824C9.01472 7.72133 9.21539 7.586 9.38339 7.418C9.56072 7.24067 9.70072 7.04 9.80339 6.816C9.90606 6.58267 9.95739 6.33533 9.95739 6.074C9.95739 5.81267 9.90606 5.56533 9.80339 5.332C9.70072 5.09867 9.56072 4.898 9.38339 4.73C9.21539 4.55267 9.01472 4.41733 8.78139 4.324C8.54806 4.22133 8.30072 4.17 8.03939 4.17C7.77806 4.17 7.53072 4.22133 7.29739 4.324C7.07339 4.41733 6.87272 4.55267 6.69539 4.73C6.52739 4.898 6.39206 5.09867 6.28939 5.332C6.19606 5.56533 6.14939 5.81267 6.14939 6.074ZM15.6958 3.666L15.0658 4.506C15.0564 4.49667 15.0238 4.47333 14.9678 4.436C14.9118 4.39867 14.8371 4.36133 14.7438 4.324C14.6598 4.28667 14.5571 4.254 14.4358 4.226C14.3238 4.18867 14.2071 4.17 14.0858 4.17C13.9271 4.17 13.7684 4.20733 13.6098 4.282C13.4604 4.35667 13.3858 4.49667 13.3858 4.702C13.3858 4.87933 13.4464 5.024 13.5678 5.136C13.6984 5.248 13.8571 5.35067 14.0438 5.444C14.2304 5.528 14.4311 5.61667 14.6458 5.71C14.8698 5.80333 15.0751 5.92 15.2618 6.06C15.4484 6.19067 15.6024 6.35867 15.7238 6.564C15.8544 6.76 15.9198 7.012 15.9198 7.32C15.9198 7.84267 15.7378 8.27667 15.3738 8.622C15.0191 8.958 14.5291 9.126 13.9038 9.126C13.5398 9.126 13.1804 9.06533 12.8258 8.944C12.4804 8.81333 12.2004 8.62667 11.9858 8.384C12.0511 8.31867 12.1211 8.23467 12.1958 8.132C12.2798 8.02933 12.3591 7.93133 12.4338 7.838C12.5178 7.74467 12.5831 7.67 12.6298 7.614C12.6858 7.54867 12.7184 7.516 12.7278 7.516C12.7278 7.52533 12.7604 7.55333 12.8258 7.6C12.9004 7.64667 12.9938 7.698 13.1058 7.754C13.2178 7.80067 13.3438 7.84733 13.4838 7.894C13.6238 7.93133 13.7638 7.95 13.9038 7.95C14.1278 7.95 14.3191 7.894 14.4778 7.782C14.6364 7.67 14.7158 7.52067 14.7158 7.334C14.7158 7.166 14.6504 7.03533 14.5198 6.942C14.3984 6.83933 14.2444 6.746 14.0578 6.662C13.8711 6.578 13.6658 6.494 13.4417 6.41C13.2178 6.31667 13.0124 6.2 12.8258 6.06C12.6391 5.92 12.4804 5.74733 12.3498 5.542C12.2284 5.32733 12.1678 5.052 12.1678 4.716C12.1678 4.39867 12.2238 4.13267 12.3358 3.918C12.4571 3.70333 12.6064 3.53067 12.7838 3.4C12.9704 3.26 13.1758 3.162 13.3998 3.106C13.6238 3.04067 13.8384 3.008 14.0438 3.008C14.3144 3.008 14.6038 3.064 14.9118 3.176C15.2198 3.288 15.4811 3.45133 15.6958 3.666ZM17.6956 0.571999H18.8856V3.162H20.4536V4.226H18.8856V9H17.6956V4.226H16.6456V3.162H17.6956V0.571999Z" fill="black"/>
</svg>
